<svg xmlns="http://www.w3.org/2000/svg" width="99.031" height="99.03" viewBox="0 0 99.031 99.03">
  <g id="changing-money" transform="translate(-1600 -316.252)">
    <g id="Group_176" data-name="Group 176" transform="translate(1600 316.252)">
      <path id="Path_437" data-name="Path 437" d="M57.955,81.509c0-13.465,10.09-23.555,23.555-23.555s23.555,10.09,23.555,23.555-10.09,23.555-23.555,23.555S57.955,94.974,57.955,81.509Zm44.5,0A20.946,20.946,0,1,0,81.51,102.456,20.97,20.97,0,0,0,102.456,81.509Z" transform="translate(-32.543 -31.379)" fill="#fff"/>
      <path id="Path_438" data-name="Path 438" d="M133.761,103.325v1.915a5.212,5.212,0,0,0-1.935.9,4.3,4.3,0,0,0-1.966,4.473,4.135,4.135,0,0,0,3.64,2.908c4.21.59,4.895,1.219,4.714,2.693a1.99,1.99,0,0,1-1.342,1.671c-1.343.546-3.672.315-5.848-1.434l-1.531,1.906a10.22,10.22,0,0,0,4.267,2.062v2.171h2.445v-2.043a6.058,6.058,0,0,0,1.588-.4,4.447,4.447,0,0,0,2.848-3.639,3.917,3.917,0,0,0-2.136-4.215,14.418,14.418,0,0,0-4.666-1.2,1.755,1.755,0,0,1-1.61-1.087c-.151-.6.24-1.309,1.048-1.905a3.1,3.1,0,0,1,3.08-.284,6.775,6.775,0,0,1,1.8,1l.783-.939.786-.936a9.023,9.023,0,0,0-2.46-1.4,7.4,7.4,0,0,0-1.063-.31v-1.916Z" transform="translate(-86.232 -63.171)" fill="#fff"/>
      <path id="Path_450" data-name="Path 450" d="M155.474,90.264A1.773,1.773,0,1,0,152.72,92.5a46.109,46.109,0,0,1-66.562,63.4,1.773,1.773,0,1,0-2.366,2.642,49.655,49.655,0,0,0,71.682-68.273Zm0,0" transform="translate(-67.519 -72.149)" fill="#ffad00"/>
      <path id="Path_449" data-name="Path 449" d="M29.148,75.256a46.108,46.108,0,0,1,76.845-34.369,1.773,1.773,0,1,0,2.365-2.642,49.656,49.656,0,0,0-71.681,68.274,1.773,1.773,0,0,0,2.755-2.234A46.2,46.2,0,0,1,29.148,75.256Zm0,0" transform="translate(-25.602 -25.602)" fill="#ffad00"/>
    </g>
  </g>
</svg>
