<svg id="Group_1510" data-name="Group 1510" xmlns="http://www.w3.org/2000/svg" width="42.261" height="42.262" viewBox="0 0 42.261 42.262">
  <g id="Group_236" data-name="Group 236" transform="translate(-544.364 -1331.779)">
    <g id="next" transform="translate(575 1362.455) rotate(180)">
      <path id="Path_184" data-name="Path 184" d="M9.8,9.048.911.157A.533.533,0,0,0,.157.911L8.669,9.423.157,17.935a.532.532,0,0,0,0,.754.537.537,0,0,0,.375.158.52.52,0,0,0,.375-.158L9.8,9.8A.53.53,0,0,0,9.8,9.048Z" transform="translate(0 0)" fill="#ffd5d8"/>
    </g>
    <path id="Path_457" data-name="Path 457" d="M122.359,9.048,113.467.157a.533.533,0,0,0-.754.754l8.512,8.512-8.512,8.512a.535.535,0,0,0,.375.912.52.52,0,0,0,.375-.158L122.355,9.8A.53.53,0,0,0,122.359,9.048Z" transform="translate(443.635 1343.607)" fill="#ffd5d8"/>
  </g>
  <g id="Group_235" data-name="Group 235" transform="translate(-1648 -258.252)">
    <g id="Group_181" data-name="Group 181" transform="translate(1648 258.252)">
      <path id="Path_452" data-name="Path 452" d="M114.044,89.887a.757.757,0,1,0-1.175.953A19.677,19.677,0,0,1,84.463,117.9a.757.757,0,1,0-1.01,1.128,21.191,21.191,0,0,0,30.591-29.136Zm0,0" transform="translate(-76.509 -82.157)" fill="#ffd5d8"/>
      <path id="Path_453" data-name="Path 453" d="M27.115,46.792A19.677,19.677,0,0,1,59.909,32.125.757.757,0,1,0,60.918,31a21.191,21.191,0,0,0-30.59,29.136A.757.757,0,0,0,31.5,59.18a19.718,19.718,0,0,1-4.389-12.388Zm0,0" transform="translate(-25.602 -25.602)" fill="#ffd5d8"/>
    </g>
  </g>
</svg>
