<svg id="facebook-logo-in-circular-button-outlined-social-symbol" xmlns="http://www.w3.org/2000/svg" width="39" height="39" viewBox="0 0 39 39">
  <path id="Path_676" data-name="Path 676" d="M39,19.5A19.5,19.5,0,1,0,19.5,39,19.5,19.5,0,0,0,39,19.5Zm-37.227,0A17.727,17.727,0,1,1,19.5,37.227,17.727,17.727,0,0,1,1.773,19.5Z" fill="#fff"/>
  <path id="Path_677" data-name="Path 677" d="M229.81,152.336V141.081h3.714l.587-3.73h-4.3v-1.87c0-.973.319-1.9,1.716-1.9h2.792v-3.723h-3.964c-3.333,0-4.242,2.195-4.242,5.237v2.257h-2.287v3.732h2.287v11.255Z" transform="translate(-209.562 -121.581)" fill="#fff"/>
</svg>
