<svg xmlns="http://www.w3.org/2000/svg" width="101.636" height="101.636" viewBox="0 0 101.636 101.636">
  <g id="Group_208" data-name="Group 208" transform="translate(-1758 -316.252)">
    <g id="Group_182" data-name="Group 182" transform="translate(1758 316.252)">
      <path id="Path_452" data-name="Path 452" d="M157.376,90.281a1.82,1.82,0,1,0-2.827,2.293,47.322,47.322,0,0,1-68.313,65.065,1.82,1.82,0,1,0-2.428,2.712,50.962,50.962,0,0,0,73.568-70.069Zm0,0" transform="translate(-67.106 -71.69)" fill="#ffad00"/>
      <path id="Path_453" data-name="Path 453" d="M29.241,76.562a47.321,47.321,0,0,1,78.867-35.273,1.82,1.82,0,0,0,2.427-2.712,50.962,50.962,0,0,0-73.568,70.071,1.82,1.82,0,0,0,2.827-2.293A47.42,47.42,0,0,1,29.241,76.562Zm0,0" transform="translate(-25.602 -25.602)" fill="#ffad00"/>
    </g>
    <path id="Path_230" data-name="Path 230" d="M152.791,357.935l-2.741-2.473c-9.734-8.937-16.161-14.738-16.161-21.964a10.28,10.28,0,0,1,10.4-10.459,11.182,11.182,0,0,1,8.506,3.994,11.182,11.182,0,0,1,8.506-3.994,10.28,10.28,0,0,1,10.4,10.459c0,7.226-6.427,13.027-16.161,21.964Z" transform="translate(1655.899 26.266)" fill="none" stroke="#fff" stroke-miterlimit="10" stroke-width="3"/>
  </g>
</svg>
