<svg xmlns="http://www.w3.org/2000/svg" width="101.424" height="99.689" viewBox="0 0 101.424 99.689">
  <g id="instagram" transform="translate(-1437 -316.252)">
    <g id="Group_177" data-name="Group 177" transform="translate(1437 316.252)">
      <path id="Path_442" data-name="Path 442" d="M155.752,90.266a1.78,1.78,0,1,0-2.765,2.242,46.286,46.286,0,0,1-66.817,63.64,1.78,1.78,0,1,0-2.375,2.652,49.846,49.846,0,0,0,71.958-68.535Zm0,0" transform="translate(-65.445 -71.804)" fill="#ffad00"/>
      <path id="Path_443" data-name="Path 443" d="M29.161,75.447a46.285,46.285,0,0,1,77.141-34.5,1.78,1.78,0,1,0,2.374-2.652A49.846,49.846,0,0,0,36.719,106.83a1.78,1.78,0,0,0,2.765-2.243A46.382,46.382,0,0,1,29.161,75.447Zm0,0" transform="translate(-25.602 -25.602)" fill="#ffad00"/>
    </g>
    <g id="Group_178" data-name="Group 178" transform="translate(1467.574 346.028)">
      <path id="Path_444" data-name="Path 444" d="M132.788,102.125h-21a9.67,9.67,0,0,0-9.659,9.659v21a9.67,9.67,0,0,0,9.659,9.659h21a9.669,9.669,0,0,0,9.659-9.659v-21A9.67,9.67,0,0,0,132.788,102.125Zm7.116,30.663a7.124,7.124,0,0,1-7.116,7.116h-21a7.123,7.123,0,0,1-7.115-7.116v-21a7.123,7.123,0,0,1,7.115-7.115h21a7.123,7.123,0,0,1,7.116,7.115Z" transform="translate(-102.125 -102.125)" fill="#fff"/>
      <path id="Path_445" data-name="Path 445" d="M256.289,139.728a1.69,1.69,0,1,0,1.69,1.69A1.692,1.692,0,0,0,256.289,139.728Z" transform="translate(-223.915 -133.442)"/>
      <path id="Path_446" data-name="Path 446" d="M163.285,154.57A8.715,8.715,0,1,0,172,163.285,8.725,8.725,0,0,0,163.285,154.57Zm0,15.188a6.472,6.472,0,1,1,6.472-6.473A6.48,6.48,0,0,1,163.285,169.758Z" transform="translate(-142.744 -143.504)" fill="#fff"/>
    </g>
  </g>
</svg>
