<svg xmlns="http://www.w3.org/2000/svg" width="100" height="100" viewBox="0 0 100 100">
  <g id="line-chart" transform="translate(-1276 -316.252)">
    <g id="Statics" transform="translate(1303.276 343.279)">
      <path id="Path_448" data-name="Path 448" d="M45.3,2.21A1.423,1.423,0,1,0,42.926.64L37.663,8.607A4.109,4.109,0,0,0,37,8.539a4.277,4.277,0,0,0-4.269,4.269A4.22,4.22,0,0,0,32.95,14.1l-5.083,6.482a4.238,4.238,0,0,0-6.5,3.441L13.322,28.7A4.255,4.255,0,0,0,6.5,33.786L.233,43.333A1.423,1.423,0,0,0,2.613,44.9L8.838,35.41a4.317,4.317,0,0,0,1.123.166,4.264,4.264,0,0,0,4.252-4.1l8.041-4.68A4.241,4.241,0,0,0,29.665,22.9l5.08-6.48a4.251,4.251,0,0,0,5.423-6.445ZM9.961,32.73a1.423,1.423,0,1,1,1.423-1.423A1.423,1.423,0,0,1,9.961,32.73Zm15.653-7.115a1.423,1.423,0,1,1,1.423-1.423A1.423,1.423,0,0,1,25.614,25.615ZM37,14.231a1.423,1.423,0,1,1,1.423-1.423A1.424,1.424,0,0,1,37,14.231Z" transform="translate(0 -0.001)" fill="#fff"/>
    </g>
    <g id="Group_181" data-name="Group 181" transform="translate(1276 316.252)">
      <path id="Path_452" data-name="Path 452" d="M156.182,90.27a1.791,1.791,0,1,0-2.781,2.256,46.56,46.56,0,0,1-67.213,64.017,1.791,1.791,0,1,0-2.389,2.668A50.141,50.141,0,0,0,156.182,90.27Zm0,0" transform="translate(-67.365 -71.978)" fill="#ffad00"/>
      <path id="Path_453" data-name="Path 453" d="M29.182,75.742a46.56,46.56,0,0,1,77.6-34.7,1.79,1.79,0,1,0,2.388-2.668,50.142,50.142,0,0,0-72.383,68.942,1.791,1.791,0,0,0,2.782-2.256A46.657,46.657,0,0,1,29.182,75.742Zm0,0" transform="translate(-25.602 -25.602)" fill="#ffad00"/>
    </g>
  </g>
</svg>
