<svg xmlns="http://www.w3.org/2000/svg" width="190" height="55" viewBox="0 0 190 55"><g transform="translate(-3 -2)"><text transform="translate(74 37)" fill="#ffad00" font-size="20" font-family="HansonBold, Hanson"><tspan x="0" y="0">SMMART</tspan></text><path d="M49,0a6,6,0,0,0-5.274,8.86L33.9,18.689a7.947,7.947,0,0,0-9.8,0l-7.669-7.669A3.947,3.947,0,0,0,17,9a4,4,0,1,0-4,4,3.947,3.947,0,0,0,2.019-.567L22.688,20.1a7.949,7.949,0,0,0,0,9.8L10.024,42.562a5.939,5.939,0,1,0,1.25,1.578L24.1,31.311A7.953,7.953,0,0,0,28,32.93V43.09a6,6,0,1,0,2,0V32.93a7.953,7.953,0,0,0,3.9-1.619l7.669,7.669A3.945,3.945,0,0,0,41,41a4,4,0,1,0,4-4,3.947,3.947,0,0,0-2.019.567L35.312,29.9a7.949,7.949,0,0,0,0-9.8l9.665-9.665A6,6,0,1,0,49,0ZM11,9a2,2,0,1,1,2,2A2,2,0,0,1,11,9ZM6,51a4,4,0,1,1,4-4A4,4,0,0,1,6,51Zm27-2a4,4,0,1,1-4-4A4,4,0,0,1,33,49ZM29,31a6,6,0,1,1,6-6A6.006,6.006,0,0,1,29,31ZM47,41a2,2,0,1,1-2-2A2,2,0,0,1,47,41Zm2-31a4,4,0,1,1,4-4A4,4,0,0,1,49,10Z" transform="translate(3 2)" fill="#ffad00"/></g></svg>