<svg xmlns="http://www.w3.org/2000/svg" width="23.89" height="38.341" viewBox="0 0 23.89 38.341">
  <g id="odnoklassniki-logo" transform="translate(-18.027 1)">
    <g id="Group_2589" data-name="Group 2589" transform="translate(19.074 0)">
      <path id="Path_1475" data-name="Path 1475" d="M28.189,55.374a14.11,14.11,0,0,1-7.526-2.686c-.27-.211-.548-.415-.794-.651a2.256,2.256,0,0,1,2.554-3.677,4.4,4.4,0,0,1,.623.369,12.34,12.34,0,0,0,13.678.125,3.708,3.708,0,0,1,1.332-.689,2.092,2.092,0,0,1,2.4.956,2.028,2.028,0,0,1-.146,2.668,11.048,11.048,0,0,1-3.978,2.571,18.671,18.671,0,0,1-4.516,1.012c.232.253.342.377.487.523,2.091,2.1,4.191,4.193,6.275,6.3a2.075,2.075,0,0,1,.467,2.443,2.477,2.477,0,0,1-2.322,1.449,2.262,2.262,0,0,1-1.47-.752c-1.578-1.588-3.185-3.146-4.731-4.764-.45-.47-.666-.381-1.063.027-1.587,1.634-3.2,3.243-4.823,4.843a2.022,2.022,0,0,1-2.441.437A2.469,2.469,0,0,1,20.764,63.6a2.276,2.276,0,0,1,.765-1.527q3.1-3.1,6.2-6.207C27.862,55.733,27.99,55.587,28.189,55.374Z" transform="translate(-19.074 -29.797)" fill="none" stroke="#fff" stroke-width="2"/>
      <path id="Path_1476" data-name="Path 1476" d="M32.7,18.379a9.19,9.19,0,1,1,9.245-9.071A9.2,9.2,0,0,1,32.7,18.379Zm4.564-9.2A4.5,4.5,0,1,0,32.8,13.688,4.476,4.476,0,0,0,37.268,9.181Z" transform="translate(-21.875 0)" fill="none" stroke="#fff" stroke-width="2"/>
    </g>
  </g>
</svg>
