<svg xmlns="http://www.w3.org/2000/svg" width="45.771" height="37.293" viewBox="0 0 45.771 37.293">
  <g id="twitter" transform="translate(-0.001 -47.348)">
    <g id="Group_2588" data-name="Group 2588" transform="translate(0.001 47.348)">
      <path id="Path_1474" data-name="Path 1474" d="M45.509,51.546a1.021,1.021,0,0,0-.932-.233l-1.554.544a10.645,10.645,0,0,0,1.942-3.341.8.8,0,0,0-.155-.932.826.826,0,0,0-.932-.155A56.906,56.906,0,0,1,38.284,49.6c0,.078-.078,0-.155,0-1.243-.7-4.273-2.253-6.448-2.253a10.27,10.27,0,0,0-9.944,10.41v.311c-8.08-1.554-12.508-3.884-17.324-8.934l-.777-.777-.466.932c-2.641,5.05-.777,9.633,2.253,12.741a6.344,6.344,0,0,1-3.185-1.4.93.93,0,0,0-1.088-.078.956.956,0,0,0-.388,1.01,15.245,15.245,0,0,0,6.759,8.39,6.23,6.23,0,0,1-3.729-.932A1.1,1.1,0,0,0,2.7,69.1a.85.85,0,0,0-.311,1.01c1.4,3.962,4.117,6.06,8.468,6.6A19.062,19.062,0,0,1,1.072,79.2a1.106,1.106,0,0,0-1.01.7,1.08,1.08,0,0,0,.311,1.165c2.8,2.253,9.012,3.574,16.7,3.574,13.673,0,24.86-12.2,24.86-27.191v-.233a7.7,7.7,0,0,0,3.807-4.739A1.021,1.021,0,0,0,45.509,51.546Zm-4.661,4.428-.466.155V57.45c0,14.139-10.488,25.637-23.306,25.637-7.07,0-11.809-1.165-14.372-2.408A18.7,18.7,0,0,0,13.58,76.717l1.942-1.4H13.191c-4.428,0-7.147-1.243-8.7-4.2A12.229,12.229,0,0,0,9,71.512a14.964,14.964,0,0,1,1.865-.078l.233-1.554a14.034,14.034,0,0,1-8.157-7.07,11.712,11.712,0,0,0,4.817.855h2.408l-1.942-1.4C6.588,61.1,1.771,56.984,4.1,51.08c4.972,4.894,9.711,7.147,18.257,8.7l.932.155V57.761a8.713,8.713,0,0,1,8.39-8.856c1.787-.078,4.739,1.554,5.594,2.02a1.781,1.781,0,0,0,1.4.155c1.165-.388,2.564-.932,4.117-1.554a12.416,12.416,0,0,1-2.874,3.263.935.935,0,0,0-.233,1.088.771.771,0,0,0,1.01.388l3.03-1.01A5.49,5.49,0,0,1,40.848,55.974Z" transform="translate(-0.001 -47.348)" fill="#fff"/>
    </g>
  </g>
</svg>
