<svg xmlns="http://www.w3.org/2000/svg" width="950" height="559.625" viewBox="0 0 950 559.625">
  <g id="video" transform="translate(-830 -254)">
    <g id="illustration" transform="translate(830 266.375)">
      <path id="Path_1446" data-name="Path 1446" d="M801.633,464.814l-60.578,28.671,53.614-40.09A302.539,302.539,0,0,0,765.4,414.873l-262.721,65.3,237.311-90.526a302.488,302.488,0,0,0-34.461-26.267L305.2,427.863a300.019,300.019,0,0,0-65.707,187.231h602.6a299.857,299.857,0,0,0-40.456-150.28Z" transform="translate(-133.945 -178.525)" fill="#3f3d56"/>
      <path id="Path_1447" data-name="Path 1447" d="M671.072,345.954a301.508,301.508,0,0,0-363.518,78.14C402.2,403.357,566.975,367.46,671.072,345.954Z" transform="translate(-132.256 -179.711)" fill="#3f3d56"/>
      <path id="Path_1448" data-name="Path 1448" d="M611.8,352.308c-10.313,30.534-26.126,58.354-58.354,58.354s-56.538-26.177-58.354-58.354c-2.32-41.116,25.383-58.524,58.354-58.354C592.4,294.155,624.042,316.072,611.8,352.308Z" transform="translate(-127.606 -180.247)" fill="#2f2e41"/>
      <rect id="Rectangle_390" data-name="Rectangle 390" width="95.448" height="139.101" transform="translate(377.699 164.298)" fill="#2f2e41"/>
      <path id="Path_1449" data-name="Path 1449" d="M537.841,421.713s3.053,43.759-4.071,50.882,63.095,13.23,62.077,5.089-14.247-61.059-10.176-72.253S537.841,421.713,537.841,421.713Z" transform="translate(-126.656 -177.548)" fill="#ffb8b8"/>
      <path id="Path_1450" data-name="Path 1450" d="M537.841,421.713s3.053,43.759-4.071,50.882,63.095,13.23,62.077,5.089-14.247-61.059-10.176-72.253S537.841,421.713,537.841,421.713Z" transform="translate(-126.656 -177.548)" opacity="0.1"/>
      <path id="Path_1451" data-name="Path 1451" d="M474.61,531.968,438.045,655.612l-1.465,4.981H375.05c24.483-75.785,85.008-187.54,85.008-187.54l9.449-2.142Z" transform="translate(-130.581 -175.857)" fill="#ffad00"/>
      <path id="Path_1452" data-name="Path 1452" d="M474.61,531.968,438.045,655.612l-1.465,4.981H375.05c24.483-75.785,85.008-187.54,85.008-187.54l9.449-2.142Z" transform="translate(-130.581 -175.857)" opacity="0.1"/>
      <circle id="Ellipse_229" data-name="Ellipse 229" cx="45.794" cy="45.794" r="45.794" transform="translate(377.603 167.842)" fill="#ffb8b8"/>
      <path id="Path_1453" data-name="Path 1453" d="M599.219,463.279s-16.282,15.265-34.6,12.212-26.008-25.328-26.008-25.328L520.86,463.279s-5.088,36.635,18.317,40.705,56.988,5.088,64.112,0S599.219,463.279,599.219,463.279Z" transform="translate(-126.975 -176.371)" fill="#3f3d56"/>
      <path id="Path_1454" data-name="Path 1454" d="M657.295,517.083l-2.921,9.49L613.146,660.987H435.71a41.59,41.59,0,0,0,.83-4.981c2.3-19.133.943-67.4.943-70.722,0-4.079,17.289-104.818,21.378-111.95a6.619,6.619,0,0,1,2.429-2.029c4.745-2.726,15.239-5.78,26.553-8.475.01-.01.01-.01.02-.01,6.323-1.537,12.923-2.951,18.908-4.15h.01c5.872-1.179,11.14-2.142,14.993-2.777a61.381,61.381,0,0,1,6.282-.871c.943,0,1.629,1.117,2.091,2.828,1.547,5.575.953,17.514.953,17.514a30.93,30.93,0,0,0,4.571,4.284,58.057,58.057,0,0,0,12.769,7.614,75.736,75.736,0,0,0,12.113,4.13h.01a88.521,88.521,0,0,0,13.271,2.306,40.954,40.954,0,0,0,10.965-.215h.021c10.791-1.783,14.747-8.485,16.592-13.835.328-.974.584-1.906.81-2.757,0-.01.01-.031.01-.041.676-2.613.963-4.448,1.681-4.417h.01c1.855.174,25.251,20.23,40.449,33.4,7.215,6.241,12.575,10.955,12.9,11.242Z" transform="translate(-129.076 -176.251)" fill="#ffad00"/>
      <path id="Path_1455" data-name="Path 1455" d="M650.483,525.156,609.255,659.57H592.54a11,11,0,0,0,1.834-7.522c-.533-3.751,11.078-41.966,22.259-77.527,10.166-32.312,19.974-62.4,19.974-62.4l9.664,4.571S648,519.96,650.483,525.156Z" transform="translate(-125.185 -174.834)" opacity="0.1"/>
      <path id="Path_1456" data-name="Path 1456" d="M679.708,647.1c-2.009.5-1.793,6.467-1.906,12.626H598.83a11.641,11.641,0,0,0,2.521-8.547c-.523-3.6,7.266-40.685,15.126-76.5,6.18-28.326,12.41-55.862,14.573-65.444.533-2.316.82-3.566.82-3.566l.933.441.021.01,20.4,9.695.021.01s31.544,60.054,21.378,74.3c-10.187,14.245-10.187,14.245-6.118,21.378C672.575,618.614,683.766,646.09,679.708,647.1Z" transform="translate(-125.029 -174.994)" fill="#ffad00"/>
      <circle id="Ellipse_230" data-name="Ellipse 230" cx="23.035" cy="23.035" r="23.035" transform="translate(402.808 79.923)" fill="#2f2e41"/>
      <path id="Path_1457" data-name="Path 1457" d="M525.172,272.035a23.035,23.035,0,0,1,20.73-22.919c-.757-.075-1.525-.116-2.3-.116a23.035,23.035,0,1,0,0,46.069c.778,0,1.546-.041,2.3-.116a23.036,23.036,0,0,1-20.731-22.918Z" transform="translate(-126.971 -181.362)" fill="#2f2e41"/>
      <path id="Path_1458" data-name="Path 1458" d="M536.826,335.264s-.481-2.677-19.292,4.377-30.087,59.111-20.682,89.679c3.79,12.319.707,21.2-4.326,27.415-18.885,23.32-11.451,58.347,16.057,70.339q1.165.508,2.377,1l11.757,7.054s-14.988-19.72-7.487-44.947a129.336,129.336,0,0,0,2.334-66.212c-.861-3.694-1.838-7.5-2.948-11.388-9.406-32.919-4.831-29.118,28.088-62.037,0,0,18.811,14.108,35.271,21.163s30.568,14.108,18.811,37.622-39.974,44.676-21.163,75.244,21.163,18.811,18.811,30.568h0L592.084,526.9l14.108-14.108-9.406,18.811s30.568,0,39.974-23.514l4.7,4.7s18.811-32.919-16.46-63.487c0,0-11.757-7.054,4.7-30.568s3.818-74.069-17.344-83.474S536.826,335.264,536.826,335.264Z" transform="translate(-127.926 -179.326)" fill="#2f2e41"/>
      <path id="Path_1459" data-name="Path 1459" d="M414.1,296.659l-39.18,67.861h9.159v9.159l44.528-77.02Z" transform="translate(9.302 7.36)" fill="#3f3d56"/>
      <rect id="Rectangle_391" data-name="Rectangle 391" width="158.846" height="62.513" transform="translate(775.782 439.644)" fill="#3f3d56"/>
      <rect id="Rectangle_392" data-name="Rectangle 392" width="118.878" height="10.248" transform="translate(795.766 519.579)" fill="#3f3d56"/>
      <rect id="Rectangle_393" data-name="Rectangle 393" width="118.878" height="8.198" transform="translate(795.766 538.026)" fill="#3f3d56"/>
      <circle id="Ellipse_231" data-name="Ellipse 231" cx="4.099" cy="4.099" r="4.099" transform="translate(12.298 8.198)" fill="#ffad00"/>
      <circle id="Ellipse_232" data-name="Ellipse 232" cx="4.099" cy="4.099" r="4.099" transform="translate(23.571 8.198)" fill="#ffad00"/>
      <circle id="Ellipse_233" data-name="Ellipse 233" cx="4.099" cy="4.099" r="4.099" transform="translate(34.844 8.198)" fill="#ffad00"/>
      <path id="Path_1460" data-name="Path 1460" d="M1086.5,730.249h-950V183h950ZM138.55,728.2h945.9V185.05H138.55Z" transform="translate(-136.5 -183)" fill="#ffad00"/>
      <rect id="Rectangle_394" data-name="Rectangle 394" width="947.95" height="2.05" transform="translate(1.025 20.585)" fill="#ffad00"/>
      <rect id="Rectangle_395" data-name="Rectangle 395" width="30.744" height="2.05" transform="translate(12.298 37.918)" fill="#3f3d56"/>
      <rect id="Rectangle_396" data-name="Rectangle 396" width="30.744" height="2.05" transform="translate(12.298 46.117)" fill="#3f3d56"/>
      <rect id="Rectangle_397" data-name="Rectangle 397" width="30.744" height="2.05" transform="translate(12.298 54.315)" fill="#3f3d56"/>
      <path id="Path_1461" data-name="Path 1461" d="M784.73,238.447H403.5V220H784.73ZM405.55,236.4H782.68V222.05H405.55Z" transform="translate(-129.875 -182.082)" fill="#ffad00"/>
      <path id="Path_1462" data-name="Path 1462" d="M760.6,231.7a4.1,4.1,0,1,1,4.1-4.1A4.1,4.1,0,0,1,760.6,231.7Zm0-6.149a2.05,2.05,0,1,0,2.05,2.05A2.05,2.05,0,0,0,760.6,225.55Z" transform="translate(-121.117 -181.995)" fill="#3f3d56"/>
      <rect id="Rectangle_398" data-name="Rectangle 398" width="2.05" height="5.626" transform="translate(640.88 48.574) rotate(-45.868)" fill="#3f3d56"/>
      <path id="Path_1463" data-name="Path 1463" d="M1000,238.447H979.5V220H1000ZM981.55,236.4h16.4V222.05h-16.4Z" transform="translate(-115.584 -182.082)" fill="#2f2e41"/>
      <path id="Path_1464" data-name="Path 1464" d="M1025,238.447h-20.5V220H1025Zm-18.447-2.05h16.4V222.05h-16.4Z" transform="translate(-114.964 -182.082)" fill="#2f2e41"/>
      <path id="Path_1465" data-name="Path 1465" d="M1050,238.447h-20.5V220H1050Zm-18.447-2.05h16.4V222.05h-16.4Z" transform="translate(-114.343 -182.082)" fill="#2f2e41"/>
      <rect id="Rectangle_399" data-name="Rectangle 399" width="18.447" height="16.397" transform="translate(681.499 497.033)" fill="#ffad00"/>
      <rect id="Rectangle_400" data-name="Rectangle 400" width="18.447" height="16.397" transform="translate(707.12 497.033)" fill="#3f3d56"/>
      <rect id="Rectangle_401" data-name="Rectangle 401" width="18.447" height="16.397" transform="translate(732.74 497.033)" fill="#3f3d56"/>
      <path id="Path_1466" data-name="Path 1466" d="M885.421,666.627H186.5V269H885.421Zm-696.872-2.05H883.372V271.05H188.55Z" transform="translate(-135.259 -180.866)" fill="#ffad00"/>
      <path id="Path_1467" data-name="Path 1467" d="M290.522,621.383v9.629l-15.994-9.761a.561.561,0,0,0-.845.482v21.1a.561.561,0,0,0,.845.482l15.994-9.761v9.629a.28.28,0,0,0,.28.279h4.961a.28.28,0,0,0,.28-.279v-21.8a.28.28,0,0,0-.28-.279H290.8A.28.28,0,0,0,290.522,621.383Z" transform="translate(-133.096 -172.13)" fill="#3f3d56"/>
      <path id="Path_1468" data-name="Path 1468" d="M248.615,643.462h-4.458a.562.562,0,0,1-.566-.559V621.662a.562.562,0,0,1,.566-.559h4.458a.562.562,0,0,1,.566.559V642.9A.562.562,0,0,1,248.615,643.462Zm12.3,0h-4.458a.562.562,0,0,1-.566-.559V621.662a.562.562,0,0,1,.566-.559h4.458a.562.562,0,0,1,.566.559V642.9a.562.562,0,0,1-.566.558Z" transform="translate(-133.843 -172.13)" fill="#3f3d56"/>
      <path id="Path_1469" data-name="Path 1469" d="M215.5,621.683v21.2a.546.546,0,0,0,.817.5l16.8-10.6a.6.6,0,0,0,0-1l-16.8-10.6a.541.541,0,0,0-.818.5Z" transform="translate(-134.54 -172.13)" fill="#ffad00"/>
      <rect id="Rectangle_402" data-name="Rectangle 402" width="632.309" height="4.099" transform="translate(84.547 434.52)"/>
      <rect id="Rectangle_403" data-name="Rectangle 403" width="110.167" height="4.099" transform="translate(84.547 434.52)" fill="#ffad00"/>
      <rect id="Rectangle_404" data-name="Rectangle 404" width="290.022" height="11.273" transform="translate(52.265 499.083)" fill="#3f3d56"/>
      <rect id="Rectangle_405" data-name="Rectangle 405" width="63.538" height="11.273" transform="translate(52.265 524.703)" fill="#3f3d56"/>
      <rect id="Rectangle_406" data-name="Rectangle 406" width="158.846" height="62.513" transform="translate(775.782 109.655)" fill="#3f3d56"/>
      <rect id="Rectangle_407" data-name="Rectangle 407" width="118.878" height="10.248" transform="translate(795.766 189.59)" fill="#3f3d56"/>
      <rect id="Rectangle_408" data-name="Rectangle 408" width="118.878" height="10.248" transform="translate(795.766 208.037)" fill="#3f3d56"/>
      <rect id="Rectangle_409" data-name="Rectangle 409" width="118.878" height="10.248" transform="translate(795.766 226.483)" fill="#3f3d56"/>
      <rect id="Rectangle_410" data-name="Rectangle 410" width="158.846" height="62.513" transform="translate(775.782 274.649)" fill="#3f3d56"/>
      <rect id="Rectangle_411" data-name="Rectangle 411" width="118.878" height="10.248" transform="translate(795.766 354.585)" fill="#3f3d56"/>
      <rect id="Rectangle_412" data-name="Rectangle 412" width="118.878" height="10.248" transform="translate(795.766 373.031)" fill="#3f3d56"/>
      <rect id="Rectangle_413" data-name="Rectangle 413" width="118.878" height="10.248" transform="translate(795.766 391.478)" fill="#3f3d56"/>
      <path id="Path_1470" data-name="Path 1470" d="M798.728,609.448l-2.115-1.6c-7.522-5.784-12.482-9.531-12.934-14.7a7.381,7.381,0,0,1,6.782-8.132,8.029,8.029,0,0,1,6.334,2.324,8.028,8.028,0,0,1,5.834-3.389,7.381,7.381,0,0,1,8.091,6.831c.452,5.169-3.782,9.72-10.185,16.722Z" transform="translate(-120.444 -173.053)" fill="#ffad00"/>
      <path id="Path_1471" data-name="Path 1471" d="M822.952,583.754l-1.16-2.384c-4.076-8.568-6.793-14.159-4.849-18.969a7.381,7.381,0,0,1,9.734-4.166,8.029,8.029,0,0,1,4.588,4.947,8.028,8.028,0,0,1,6.737-.37,7.381,7.381,0,0,1,4.107,9.76c-1.944,4.81-7.783,6.943-16.667,10.274Z" transform="translate(-119.633 -173.704)" fill="#ffad00"/>
      <path id="Path_1472" data-name="Path 1472" d="M812.952,650.754l-1.16-2.384c-4.076-8.568-6.794-14.159-4.849-18.969a7.381,7.381,0,0,1,9.735-4.166,8.029,8.029,0,0,1,4.588,4.947,8.029,8.029,0,0,1,6.737-.37,7.381,7.381,0,0,1,4.107,9.76c-1.944,4.81-7.783,6.943-16.667,10.274Z" transform="translate(-119.881 -172.042)" fill="#ffad00"/>
    </g>
    <rect id="Rectangle_51" data-name="Rectangle 51" width="950" height="548" rx="40" transform="translate(830 254)" opacity="0.4"/>
    <g id="music-player-play-button" transform="translate(1206.998 492.941)">
      <path id="Path_412" data-name="Path 412" d="M183.766,151.776a2.036,2.036,0,0,1-2.036-2.037v-29.2a2.037,2.037,0,0,1,3.341-1.565l17.518,14.6a2.037,2.037,0,0,1,0,3.13l-17.518,14.6A2.037,2.037,0,0,1,183.766,151.776Zm2.038-26.884v20.5l12.3-10.249Z" transform="translate(-154.162 -100.526)" fill="#fff"/>
      <path id="Path_413" data-name="Path 413" d="M34.552,69.225A34.419,34.419,0,0,1,17.636,64.8a2.037,2.037,0,0,1,2-3.55,30.581,30.581,0,1,0-6.627-5.036,2.037,2.037,0,0,1-2.88,2.881A34.669,34.669,0,1,1,34.552,69.225Z" transform="translate(0)" fill="#fff"/>
    </g>
  </g>
</svg>
