<svg xmlns="http://www.w3.org/2000/svg" width="52.445" height="30.584" viewBox="0 0 52.445 30.584">
  <g id="vk" transform="translate(-0.002 -106.707)">
    <g id="Group_2586" data-name="Group 2586" transform="translate(0.002 106.707)">
      <g id="Group_2585" data-name="Group 2585" transform="translate(0 0)">
        <path id="Path_1473" data-name="Path 1473" d="M50.116,130.161a44.886,44.886,0,0,0-3.676-3.768c-.438-.415-.891-.844-1.328-1.27h0c-.587-.572-.874-.979-.9-1.279a2.45,2.45,0,0,1,.636-1.38c.693-.973,1.432-1.948,2.147-2.89.635-.838,1.292-1.7,1.922-2.576l.141-.2a20.032,20.032,0,0,0,3.18-5.6,2.385,2.385,0,0,0-2.117-3.465,5.114,5.114,0,0,0-.88-.058l-7.97-.007a2.8,2.8,0,0,0-2.855,1.942c-.417,1.047-.909,2.261-1.48,3.413a27.767,27.767,0,0,1-4.488,6.917l-.089.1a2.673,2.673,0,0,1-.475.44,2.194,2.194,0,0,1-.458-1.33c0-.01,0-.02,0-.03l-.007-9.209a1.05,1.05,0,0,0-.01-.14c-.179-1.314-.527-2.631-2.607-3.041a1.042,1.042,0,0,0-.2-.02h-8.29A3.686,3.686,0,0,0,17.26,108.2a1.4,1.4,0,0,0,.859,2.5,1.731,1.731,0,0,1,1.515,1.658,26.826,26.826,0,0,1,.11,6.382,5.2,5.2,0,0,1-.344,1.578,1.211,1.211,0,0,1-.121.229,1.212,1.212,0,0,1-.225-.126,6.851,6.851,0,0,1-1.576-1.763,43.184,43.184,0,0,1-4.753-8.811,3.142,3.142,0,0,0-2.942-2.14c-2.553-.043-4.915-.041-7.217,0A2.537,2.537,0,0,0,.3,108.718a2.546,2.546,0,0,0,.045,2.489,88.649,88.649,0,0,0,9.408,16.761,23.944,23.944,0,0,0,7.384,6.9,19.189,19.189,0,0,0,9.773,2.424q.635,0,1.29-.031c2.3-.1,3.23-1.018,3.332-3.254a6.7,6.7,0,0,1,.645-2.971.829.829,0,0,1,.385-.418.887.887,0,0,1,.573.2,6.034,6.034,0,0,1,1.118,1c.312.342.628.695.933,1.036.65.727,1.322,1.479,2.025,2.2a6.708,6.708,0,0,0,5.457,2.211l7.294,0h0l.069,0a2.455,2.455,0,0,0,2-1.278,3.244,3.244,0,0,0-.021-3.087A15.519,15.519,0,0,0,50.116,130.161Zm.1,4.8a.38.38,0,0,1-.289.218l-7.292,0h0c-.029,0-.058,0-.086,0a4.6,4.6,0,0,1-3.839-1.589c-.67-.682-1.325-1.415-1.959-2.125-.309-.346-.628-.7-.949-1.054a7.944,7.944,0,0,0-1.522-1.344,2.76,2.76,0,0,0-2.221-.472,2.713,2.713,0,0,0-1.707,1.439,8.709,8.709,0,0,0-.9,3.877c-.036.78-.168.986-.223,1.039-.072.069-.314.189-1.119.226a17.752,17.752,0,0,1-9.929-2.12,21.948,21.948,0,0,1-6.741-6.326,86.672,86.672,0,0,1-9.183-16.376,1.772,1.772,0,0,1-.159-.494,1.784,1.784,0,0,1,.51-.066c2.279-.044,4.616-.045,7.146,0,.346.005.741.109,1.04.84a45.232,45.232,0,0,0,4.983,9.23,8.693,8.693,0,0,0,2.1,2.279,2.138,2.138,0,0,0,3.451-1.014,7.194,7.194,0,0,0,.5-2.209,28.851,28.851,0,0,0-.125-6.873,3.8,3.8,0,0,0-2.182-3.087,1.634,1.634,0,0,1,.787-.157h8.182c.46.1.551.225.583.266a2.465,2.465,0,0,1,.255.919l.007,9.124c-.018.875.407,2.814,1.854,3.346l.036.012a2.487,2.487,0,0,0,2.657-1l.083-.089a29.667,29.667,0,0,0,4.843-7.427c.6-1.218,1.115-2.479,1.547-3.565.216-.545.413-.635.883-.625h.019l7.98.007a3.4,3.4,0,0,1,.53.028,1.685,1.685,0,0,1,.588.176,1.668,1.668,0,0,1-.111.6,18.182,18.182,0,0,1-2.882,5.009l-.141.2c-.615.851-1.265,1.708-1.893,2.537-.724.955-1.473,1.942-2.183,2.938-1.517,2.117-1.384,3.522.51,5.369.448.437.906.871,1.35,1.292a42.709,42.709,0,0,1,3.507,3.588,13.6,13.6,0,0,1,1.643,2.359A1.192,1.192,0,0,1,50.211,134.957Z" transform="translate(-0.002 -106.707)" fill="#fff"/>
      </g>
    </g>
  </g>
</svg>
